<svg xmlns="http://www.w3.org/2000/svg" viewBox="0 0 64 80" x="0px" y="0px"><g><path d="M57.93,32.7111a.961.961,0,0,0-.0811-.1906C56.5964,29.8014,54.444,28,52,28H35.653L28.6138,17.7027c-.6043-1.4548-2.6733-2.09-5.0093-1.4664-2.478.6641-4.0127,2.4107-3.57,4.0625.0057.0211.02.0384.0262.0593.005.0151.0021.0307.008.0457L23.0356,28H12c-3.86,0-7,4.4858-7,10s3.14,10,7,10H52c3.86,0,7-4.4863,7-10A13.2152,13.2152,0,0,0,57.93,32.7111ZM24.1221,18.168a4.708,4.708,0,0,1,1.2158-.1695c.8686,0,1.4043.29,1.458.4893.0742.2808-.5884,1.1924-2.1563,1.6123a4.1221,4.1221,0,0,1-2.0288.0737.987.987,0,0,1-.6258-.3609l-.0184-.0471C21.9142,19.4717,22.5765,18.5823,24.1221,18.168ZM22.933,22.24c.159.0135.3174.0285.482.0285a6.7671,6.7671,0,0,0,1.7422-.2364,5.8414,5.8414,0,0,0,2.8668-1.6472L33.23,28H25.1831ZM7,38c0-4.3369,2.29-8,5-8s5,3.6631,5,8-2.29,8-5,8S7,42.3369,7,38Zm45,8H16.1958c.0375-.04.07-.0881.1074-.1294.1242-.139.2438-.2849.3612-.4354.0679-.087.1367-.1718.2022-.2625.1282-.1777.2492-.3648.3677-.5559.0457-.0737.0947-.1426.1389-.2182.075-.1284.1429-.2649.2134-.3986H24a1,1,0,0,0,0-2H18.4114c.0345-.1124.065-.2271.0967-.3416.0354-.1281.0679-.2576.1-.3884.0525-.2159.0992-.4349.1415-.6572.0251-.1324.05-.264.0719-.3985.0385-.2424.0678-.4889.0938-.7375.0122-.1179.0284-.2336.0378-.3528C18.9819,38.7545,19,38.38,19,38s-.0181-.7545-.0472-1.124c-.0094-.119-.0255-.2347-.0378-.3525-.0259-.249-.0553-.4958-.0939-.7384-.0213-.134-.0466-.2651-.0716-.397q-.0634-.3344-.1419-.6591c-.0317-.13-.064-.2591-.0992-.3867-.06-.2182-.1274-.4307-.1979-.6412-.0379-.1132-.0735-.2278-.1143-.3387-.0907-.2463-.19-.4842-.2946-.7179-.0292-.0655-.0544-.1344-.0846-.1988q-.2065-.44-.4444-.8453c-.0431-.0737-.0909-.1409-.1354-.2129-.12-.193-.2418-.3818-.3712-.5611-.0649-.09-.133-.1738-.2-.26-.1181-.1516-.2386-.2986-.3638-.4385-.0365-.0408-.0691-.0882-.1062-.128h8.3015l.0032,0,.0026,0H52a4.1586,4.1586,0,0,1,3.26,2H52a1,1,0,0,0,0,2h4.3006A11.562,11.562,0,0,1,57,38C57,42.3369,54.71,46,52,46Z"/><path d="M15,38c0-2.8506-1.29-5-3-5s-3,2.1494-3,5,1.29,5,3,5S15,40.8506,15,38Zm-4,0c0-1.9355.751-3,1-3s1,1.0645,1,3-.751,3-1,3S11,39.9355,11,38Z"/><path d="M24,33a1,1,0,0,0-1-1H21a1,1,0,0,0,0,2h2A1,1,0,0,0,24,33Z"/><path d="M37,34a1,1,0,0,0,0-2H33a1,1,0,0,0-.707.293L27.5859,37H23a1,1,0,0,0,0,2h5a1,1,0,0,0,.707-.293L33.4141,34Z"/><path d="M52,42H47.4141L42.707,37.293A1,1,0,0,0,42,37H36a1,1,0,0,0,0,2h5.5859l4.7071,4.707A1,1,0,0,0,47,44h5a1,1,0,0,0,0-2Z"/><path d="M36,42H30a1,1,0,0,0,0,2h6a1,1,0,0,0,0-2Z"/><path d="M42,34h4a1,1,0,0,0,0-2H42a1,1,0,0,0,0,2Z"/><path d="M54,37H49a1,1,0,0,0,0,2h5a1,1,0,0,0,0-2Z"/></g></svg>